<svg xmlns="http://www.w3.org/2000/svg" width="512" height="512" viewBox="0 0 512 512">
  <defs>
    <linearGradient id="bg" x1="64" y1="48" x2="448" y2="464" gradientUnits="userSpaceOnUse">
      <stop offset="0" stop-color="#0b7f8c"/>
      <stop offset="0.58" stop-color="#2f8a4c"/>
      <stop offset="1" stop-color="#c05b45"/>
    </linearGradient>
    <filter id="shadow" x="-20%" y="-20%" width="140%" height="140%">
      <feDropShadow dx="0" dy="22" stdDeviation="22" flood-color="#202027" flood-opacity="0.22"/>
    </filter>
  </defs>
  <rect x="48" y="48" width="416" height="416" rx="84" fill="url(#bg)" filter="url(#shadow)"/>
  <path d="M174 154c0-18 20-29 35-19l155 101c14 9 14 31 0 40L209 377c-15 10-35-1-35-19V154z" fill="#fffdf8"/>
  <path d="M132 154c0-13 10-23 23-23h33c-9 8-15 20-15 34v182c0 14 6 26 15 34h-33c-13 0-23-10-23-23V154z" fill="#fffdf8" opacity="0.72"/>
</svg>
